<svg xmlns="http://www.w3.org/2000/svg" viewBox="0 0 136.02 73.05"><defs><style>.cls-1{fill:#036;}.cls-2{fill:#ccc;}</style></defs><title>Asset 1</title><g id="Layer_2" data-name="Layer 2"><g id="Layer_1-2" data-name="Layer 1"><polygon class="cls-1" points="127.28 28.89 127.28 51.66 107.62 63.05 87.97 51.66 87.97 28.89 79.23 23.89 79.23 56.66 107.62 73.05 136.02 56.66 136.02 23.89 127.28 28.89"/><polygon class="cls-1" points="97.99 16.28 97.99 45.05 107.62 39.54 117.26 45.05 117.26 16.28 126.51 21.78 135.52 16.38 107.62 0 79.73 16.38 88.73 21.78 97.99 16.28"/><path class="cls-1" d="M36,27.15H51a3.86,3.86,0,0,0,3.61-1.93,3.64,3.64,0,0,0,3.67,2.11,3.62,3.62,0,0,0,3.6-2.08,4.1,4.1,0,0,0,4,2.08,5,5,0,0,0,3.46-1.23q1.41-1.23,1.41-4.11V17H67.91v5c0,1.7-.71,2.55-2.14,2.55s-2.2-.85-2.2-2.55V18.09H60.79V22c0,1.7-.71,2.55-2.11,2.55s-2.2-.85-2.2-2.55V19.3H53.69v2q0,3.07-3,3.08H25.53a3.5,3.5,0,0,1-1.9-.43,3.55,3.55,0,0,1-1.15-1.65L18.25,11.62l8.19-2.91.33-3L15.48,9.79V12.2l2.78,6.92A8.13,8.13,0,0,1,19,21.9a2.54,2.54,0,0,1-.61,1.81,2.36,2.36,0,0,1-1.82.66h-5V22.14c0-3-.65-5.08-2-6.13A5.66,5.66,0,0,0,6,14.89a5.5,5.5,0,0,0-4.36,1.73A6.73,6.73,0,0,0,.08,21.17a6.13,6.13,0,0,0,1.29,4.08c1.09,1.27,2.84,1.91,5.25,1.9H8.41A5.18,5.18,0,0,1,5.76,30,17.28,17.28,0,0,1,.52,31.38l.53,2.69Q10,33,11.32,27.15h5.59a3.64,3.64,0,0,0,3.67-2.55,4.7,4.7,0,0,0,1.55,1.95,4.25,4.25,0,0,0,2.38.6ZM8.76,24.37h-2a4,4,0,0,1-3.2-1.06,3.3,3.3,0,0,1-.7-2.26,3.64,3.64,0,0,1,.79-2.48,2.69,2.69,0,0,1,2.14-.92,2.79,2.79,0,0,1,1.88.62c.7.6,1,2,1,4.1Z"/><path class="cls-2" d="M10,54.06H7V52.47a2.46,2.46,0,0,1,.55-1.71,2,2,0,0,1,1.58-.61h.73a2.59,2.59,0,0,1,2.15,1l.59-.59a3.35,3.35,0,0,0-2.74-1.2H9.17A2.8,2.8,0,0,0,7,50.2a3.24,3.24,0,0,0-.78,2.25v2.42H10a2.64,2.64,0,0,1,1.83.59,2.27,2.27,0,0,1,.66,1.8c0,1.61-.87,2.42-2.61,2.42H4.42a3.65,3.65,0,0,1-2.79-.91A3.32,3.32,0,0,1,.8,56.48v-1H0v1A5.21,5.21,0,0,0,.21,58,4,4,0,0,0,.9,59.26a3.21,3.21,0,0,0,1.35.91,5.83,5.83,0,0,0,2.11.33H9.91a3.59,3.59,0,0,0,2.47-.84,3.07,3.07,0,0,0,.94-2.43,3,3,0,0,0-.91-2.35A3.47,3.47,0,0,0,10,54.06Z"/><rect class="cls-2" x="21.69" y="59.62" width="1.02" height="1.09"/><path class="cls-2" d="M22.21,55.12q0,2.16-2.07,2.16h-.4c-1.57,0-2.36-.71-2.36-2.15V52.56h-.82v5a4.28,4.28,0,0,1-.67,2.63,4.12,4.12,0,0,1-2.17,1.36l.28.75a4.8,4.8,0,0,0,2.53-1.6,4.89,4.89,0,0,0,.85-3.08V57.1a2.27,2.27,0,0,0,2.08,1h.75a2.74,2.74,0,0,0,2.09-.78A3.13,3.13,0,0,0,23,55.1V52.56h-.82Z"/><rect class="cls-2" x="25.61" y="45.37" width="0.82" height="12.73"/><path class="cls-2" d="M38.56,52.43a2.91,2.91,0,0,0-2.07.75,3.14,3.14,0,0,0-.92,2.1h-.11a2.17,2.17,0,0,0-1.66.62,2.59,2.59,0,0,0-.59,1.85v4.57H34V57.83c0-1.15.48-1.73,1.43-1.73h.11a3.32,3.32,0,0,0,.84,2.1,3.08,3.08,0,0,0,4.32-.13,3.66,3.66,0,0,0,.76-2.4,3.37,3.37,0,0,0-.8-2.37A2.74,2.74,0,0,0,38.56,52.43Zm1.58,5.13a2.29,2.29,0,0,1-3.26,0,2.84,2.84,0,0,1-.54-1.8,2.8,2.8,0,0,1,.55-1.81,2.27,2.27,0,0,1,3.23,0,2.74,2.74,0,0,1,.55,1.81A3,3,0,0,1,40.14,57.56Z"/><rect class="cls-2" x="51.72" y="48.43" width="1.02" height="1.09"/><rect class="cls-2" x="57.66" y="49.16" width="1.02" height="1.09"/><rect class="cls-2" x="60.02" y="49.16" width="1.02" height="1.09"/><rect class="cls-2" x="70.51" y="59.62" width="1.02" height="1.09"/><rect class="cls-2" x="69.44" y="61.72" width="1.02" height="1.09"/><rect class="cls-2" x="68.37" y="59.62" width="1.02" height="1.09"/><path class="cls-2" d="M70.78,55.1V52.56H70v2.56c0,1.44-.69,2.16-2.08,2.16h-.46a2.18,2.18,0,0,1-1.69-.56,2.36,2.36,0,0,1-.49-1.62V45.37h-.82v9.75A2.26,2.26,0,0,1,64,56.74a2.08,2.08,0,0,1-1.6.54H62a2.14,2.14,0,0,1-1.67-.56,2.36,2.36,0,0,1-.49-1.6V52.56H59v2.57a2.22,2.22,0,0,1-.52,1.62,2.14,2.14,0,0,1-1.64.53h-3a2.9,2.9,0,0,0,1.34-2.77,3.48,3.48,0,0,0-.77-2.34,2.68,2.68,0,0,0-2.16-.88,2.83,2.83,0,0,0-2.19.88,3.42,3.42,0,0,0-.82,2.41,2.81,2.81,0,0,0,1.36,2.7H47.75c-1.58,0-2.36-.71-2.36-2.15V52.56h-.82v5a4.34,4.34,0,0,1-.67,2.63,4.15,4.15,0,0,1-2.18,1.36l.29.75a4.8,4.8,0,0,0,2.53-1.6,5,5,0,0,0,.85-3.08V57.1a2.22,2.22,0,0,0,2.07,1h2.88A3.66,3.66,0,0,0,52,57.76a4.27,4.27,0,0,0,1.8.34h3.28a2.13,2.13,0,0,0,2.22-1.46,2,2,0,0,0,.85,1.08,2.48,2.48,0,0,0,1.38.38h1a2.14,2.14,0,0,0,2.24-1.5,2.23,2.23,0,0,0,2.36,1.5H68a2.74,2.74,0,0,0,2.09-.78A3.08,3.08,0,0,0,70.78,55.1ZM52.22,57.24a1.9,1.9,0,0,1-1.61-.74A3,3,0,0,1,50,54.63a2.66,2.66,0,0,1,.59-1.84,2,2,0,0,1,1.59-.68,1.9,1.9,0,0,1,1.56.68,2.77,2.77,0,0,1,.57,1.86,3,3,0,0,1-.56,1.87A1.85,1.85,0,0,1,52.22,57.24Z"/></g></g></svg>